<mxfile host="app.diagrams.net" agent="Mozilla/5.0 (Macintosh; Intel Mac OS X 10_15_7) AppleWebKit/537.36 (KHTML, like Gecko) Chrome/129.0.0.0 Safari/537.36" version="24.7.17">
  <diagram name="Page-1" id="jw-o8gVHuMOFeYqPTr2f">
    <mxGraphModel dx="1026" dy="650" grid="1" gridSize="10" guides="1" tooltips="1" connect="1" arrows="1" fold="1" page="1" pageScale="1" pageWidth="850" pageHeight="1100" math="0" shadow="0">
      <root>
        <mxCell id="0" />
        <mxCell id="1" parent="0" />
        <mxCell id="rAsw_rb8i3RVqyCq1ZmJ-7" value="" style="group" vertex="1" connectable="0" parent="1">
          <mxGeometry x="80" y="40" width="480" height="460" as="geometry" />
        </mxCell>
        <mxCell id="rAsw_rb8i3RVqyCq1ZmJ-1" value="" style="rounded=0;whiteSpace=wrap;html=1;" vertex="1" parent="rAsw_rb8i3RVqyCq1ZmJ-7">
          <mxGeometry width="480" height="460" as="geometry" />
        </mxCell>
        <mxCell id="rAsw_rb8i3RVqyCq1ZmJ-2" value="AWS Cloud" style="text;html=1;align=center;verticalAlign=middle;whiteSpace=wrap;rounded=0;" vertex="1" parent="rAsw_rb8i3RVqyCq1ZmJ-7">
          <mxGeometry width="70" height="30" as="geometry" />
        </mxCell>
        <mxCell id="rAsw_rb8i3RVqyCq1ZmJ-3" value="" style="rounded=0;whiteSpace=wrap;html=1;dashed=1;" vertex="1" parent="rAsw_rb8i3RVqyCq1ZmJ-7">
          <mxGeometry x="20" y="40" width="440" height="190" as="geometry" />
        </mxCell>
        <mxCell id="rAsw_rb8i3RVqyCq1ZmJ-4" value="" style="rounded=0;whiteSpace=wrap;html=1;dashed=1;" vertex="1" parent="rAsw_rb8i3RVqyCq1ZmJ-7">
          <mxGeometry x="20" y="250" width="440" height="190" as="geometry" />
        </mxCell>
        <mxCell id="rAsw_rb8i3RVqyCq1ZmJ-5" value="Primary Region" style="text;html=1;align=center;verticalAlign=middle;whiteSpace=wrap;rounded=0;" vertex="1" parent="rAsw_rb8i3RVqyCq1ZmJ-7">
          <mxGeometry x="20" y="40" width="90" height="30" as="geometry" />
        </mxCell>
        <mxCell id="rAsw_rb8i3RVqyCq1ZmJ-6" value="Secondary Region" style="text;html=1;align=center;verticalAlign=middle;whiteSpace=wrap;rounded=0;" vertex="1" parent="rAsw_rb8i3RVqyCq1ZmJ-7">
          <mxGeometry x="20" y="250" width="110" height="30" as="geometry" />
        </mxCell>
        <mxCell id="rAsw_rb8i3RVqyCq1ZmJ-8" value="" style="rounded=0;whiteSpace=wrap;html=1;" vertex="1" parent="rAsw_rb8i3RVqyCq1ZmJ-7">
          <mxGeometry x="30" y="70" width="420" height="150" as="geometry" />
        </mxCell>
        <mxCell id="rAsw_rb8i3RVqyCq1ZmJ-9" value="VPC" style="text;html=1;align=center;verticalAlign=middle;whiteSpace=wrap;rounded=0;" vertex="1" parent="rAsw_rb8i3RVqyCq1ZmJ-7">
          <mxGeometry x="30" y="70" width="30" height="30" as="geometry" />
        </mxCell>
        <mxCell id="rAsw_rb8i3RVqyCq1ZmJ-11" value="" style="rounded=0;whiteSpace=wrap;html=1;" vertex="1" parent="rAsw_rb8i3RVqyCq1ZmJ-7">
          <mxGeometry x="30" y="280" width="420" height="150" as="geometry" />
        </mxCell>
        <mxCell id="rAsw_rb8i3RVqyCq1ZmJ-12" value="VPC" style="text;html=1;align=center;verticalAlign=middle;whiteSpace=wrap;rounded=0;" vertex="1" parent="rAsw_rb8i3RVqyCq1ZmJ-7">
          <mxGeometry x="30" y="280" width="30" height="30" as="geometry" />
        </mxCell>
      </root>
    </mxGraphModel>
  </diagram>
</mxfile>
